<?xml version="1.0" encoding="UTF-8"?>
<!DOCTYPE svg PUBLIC "-//W3C//DTD SVG 1.1//EN" "http://www.w3.org/Graphics/SVG/1.1/DTD/svg11.dtd">
<svg xmlns="http://www.w3.org/2000/svg" version="1.1" width="278px" height="87px" style="shape-rendering:geometricPrecision; text-rendering:geometricPrecision; image-rendering:optimizeQuality; fill-rule:evenodd; clip-rule:evenodd" xmlns:xlink="http://www.w3.org/1999/xlink">
<g><path style="opacity:0.887" fill="#000000" d="M 130.5,-0.5 C 130.833,-0.5 131.167,-0.5 131.5,-0.5C 135.194,0.401375 138.861,1.73471 142.5,3.5C 144.233,7.14323 143.233,9.80989 139.5,11.5C 148.147,12.6652 156.814,12.8319 165.5,12C 166.977,9.55507 168.81,7.38841 171,5.5C 174.823,8.47909 177.656,12.1458 179.5,16.5C 179.32,17.5539 178.987,18.5539 178.5,19.5C 164.182,20.4993 149.849,20.8326 135.5,20.5C 134.265,22.7729 134.598,24.6062 136.5,26C 144.167,26.6667 151.833,26.6667 159.5,26C 161.022,24.4782 162.522,22.9782 164,21.5C 172.582,24.996 174.415,30.496 169.5,38C 169.667,39.5 169.833,41 170,42.5C 170.978,40.5249 172.311,38.8582 174,37.5C 177.372,40.3725 180.206,43.7058 182.5,47.5C 181.872,49.2581 180.872,50.7581 179.5,52C 176.183,52.4983 172.85,52.665 169.5,52.5C 169.276,56.2044 169.11,59.871 169,63.5C 170.308,61.3586 171.808,59.3586 173.5,57.5C 176.725,60.5605 179.392,64.0605 181.5,68C 181.097,69.4728 180.43,70.8061 179.5,72C 175.789,72.1747 172.122,72.6747 168.5,73.5C 168.038,80.2695 164.705,84.6029 158.5,86.5C 156.833,86.5 155.167,86.5 153.5,86.5C 153.029,85.0992 152.362,83.7658 151.5,82.5C 148.243,81.4486 144.91,80.7819 141.5,80.5C 141.5,78.1667 141.5,75.8333 141.5,73.5C 145.879,73.2921 150.213,73.6255 154.5,74.5C 155.737,74.4435 156.737,73.9435 157.5,73C 149.507,72.5003 141.507,72.3336 133.5,72.5C 133.756,74.7925 133.423,76.9592 132.5,79C 129.183,79.4983 125.85,79.665 122.5,79.5C 123.746,70.529 124.746,61.529 125.5,52.5C 122.223,52.7839 119.057,52.4505 116,51.5C 114.345,56.4541 112.845,61.4541 111.5,66.5C 112.88,71.4368 113.38,76.4368 113,81.5C 111.975,83.687 110.475,85.3536 108.5,86.5C 107.167,86.5 105.833,86.5 104.5,86.5C 102.27,85.225 100.937,83.225 100.5,80.5C 101.706,76.2268 102.206,71.8935 102,67.5C 100.728,64.7776 98.5608,63.4443 95.5,63.5C 95.5,60.8333 95.5,58.1667 95.5,55.5C 97.8194,56.167 100.153,56.3336 102.5,56C 105.82,51.1941 108.487,46.0275 110.5,40.5C 107.805,41.0184 105.139,40.3517 102.5,38.5C 101.398,33.8953 98.8985,30.2287 95,27.5C 94.583,24.886 95.583,22.886 98,21.5C 105.004,23.1484 110.004,27.1484 113,33.5C 114.401,29.1292 115.901,24.7959 117.5,20.5C 115.098,20.4779 112.432,20.3112 109.5,20C 107.783,14.9514 104.616,11.118 100,8.5C 99.9382,5.83852 100.938,3.50518 103,1.5C 107.62,3.31001 111.954,5.64334 116,8.5C 117.411,10.6504 118.245,12.9837 118.5,15.5C 120.963,15.7811 123.13,16.7811 125,18.5C 127.914,12.5153 129.747,6.18199 130.5,-0.5 Z M 137.5,33.5 C 139.167,33.5 140.833,33.5 142.5,33.5C 142.5,37.1667 142.5,40.8333 142.5,44.5C 140.396,44.7989 138.396,44.4656 136.5,43.5C 137.417,40.2423 137.751,36.909 137.5,33.5 Z M 153.5,33.5 C 155.5,33.5 157.5,33.5 159.5,33.5C 159.058,37.1545 158.724,40.8212 158.5,44.5C 156.5,44.5 154.5,44.5 152.5,44.5C 152.423,40.7852 152.756,37.1185 153.5,33.5 Z M 126.5,36.5 C 127.258,38.9815 127.258,41.6481 126.5,44.5C 123.753,44.8134 121.086,44.48 118.5,43.5C 122.421,42.5779 125.088,40.2446 126.5,36.5 Z M 136.5,52.5 C 138.167,52.5 139.833,52.5 141.5,52.5C 141.665,56.1817 141.499,59.8484 141,63.5C 139.23,65.4181 137.063,65.9181 134.5,65C 135.264,60.8735 135.931,56.7068 136.5,52.5 Z M 152.5,52.5 C 154.5,52.5 156.5,52.5 158.5,52.5C 158.5,56.8333 158.5,61.1667 158.5,65.5C 156.167,65.5 153.833,65.5 151.5,65.5C 151.231,61.0685 151.564,56.7352 152.5,52.5 Z"/></g>
<g><path style="opacity:0.871" fill="#000000" d="M 251.5,-0.5 C 252.167,-0.5 252.833,-0.5 253.5,-0.5C 256.408,0.95406 259.408,2.45406 262.5,4C 264.155,5.44425 264.822,7.27759 264.5,9.5C 265.552,9.35055 266.552,9.51722 267.5,10C 278.667,19.013 277,23.6797 262.5,24C 265.325,26.1433 267.325,28.81 268.5,32C 268.491,33.4038 267.991,34.5704 267,35.5C 266.5,48.1623 266.333,60.8289 266.5,73.5C 270.234,73.6773 273.901,73.3439 277.5,72.5C 277.5,73.1667 277.5,73.8333 277.5,74.5C 274.793,77.2466 273.127,80.5799 272.5,84.5C 258.13,84.8466 243.797,84.3466 229.5,83C 222.061,81.947 215.727,78.7803 210.5,73.5C 205.613,76.7105 202.279,81.0439 200.5,86.5C 199.167,86.5 197.833,86.5 196.5,86.5C 193.63,83.9365 191.63,80.7699 190.5,77C 194.878,73.3882 199.378,69.8882 204,66.5C 204.5,59.8417 204.666,53.175 204.5,46.5C 200.486,46.6655 196.486,46.4988 192.5,46C 191.308,44.0876 190.308,42.0876 189.5,40C 194.5,39.6667 199.5,39.3333 204.5,39C 206.017,37.3149 207.684,35.8149 209.5,34.5C 212.151,36.6499 214.651,38.9832 217,41.5C 217.874,44.0031 217.207,46.0031 215,47.5C 214.333,53.1667 214.333,58.8333 215,64.5C 216.333,67.1667 218.333,69.1667 221,70.5C 221.175,54.9257 221.675,39.4257 222.5,24C 217.041,24.4305 211.707,25.0972 206.5,26C 204.208,22.5838 202.041,19.0838 200,15.5C 198.292,13.4565 196.292,11.7899 194,10.5C 193.938,7.83852 194.938,5.50518 197,3.5C 203.329,6.16464 208.829,9.99798 213.5,15C 219.167,15.6667 224.833,15.6667 230.5,15C 228.746,11.4115 226.412,8.2448 223.5,5.5C 224.124,3.24602 225.457,1.57935 227.5,0.5C 231.675,2.08434 235.341,4.41767 238.5,7.5C 240.623,9.74542 241.623,12.4121 241.5,15.5C 243.467,15.7394 245.301,15.4061 247,14.5C 249.213,9.69553 250.713,4.69553 251.5,-0.5 Z M 264.5,9.5 C 263.412,13.1036 261.079,14.9369 257.5,15C 259.193,12.3752 261.527,10.5419 264.5,9.5 Z M 223.5,24.5 C 227.634,23.5151 231.968,23.1818 236.5,23.5C 236.5,24.8333 236.5,26.1667 236.5,27.5C 231.82,27.8812 227.486,26.8812 223.5,24.5 Z M 248.5,23.5 C 252.182,23.3347 255.848,23.5014 259.5,24C 255.865,27.4125 251.532,28.4125 246.5,27C 247.305,25.8873 247.972,24.7206 248.5,23.5 Z M 232.5,35.5 C 240.5,35.5 248.5,35.5 256.5,35.5C 256.5,36.5 256.5,37.5 256.5,38.5C 248.5,38.5 240.5,38.5 232.5,38.5C 232.5,37.5 232.5,36.5 232.5,35.5 Z M 232.5,46.5 C 240.5,46.5 248.5,46.5 256.5,46.5C 256.5,47.8333 256.5,49.1667 256.5,50.5C 248.5,50.5 240.5,50.5 232.5,50.5C 232.5,49.1667 232.5,47.8333 232.5,46.5 Z M 232.5,57.5 C 240.5,57.5 248.5,57.5 256.5,57.5C 256.5,59.1667 256.5,60.8333 256.5,62.5C 248.5,62.5 240.5,62.5 232.5,62.5C 232.5,60.8333 232.5,59.1667 232.5,57.5 Z M 232.5,70.5 C 240.5,70.5 248.5,70.5 256.5,70.5C 256.5,71.8333 256.5,73.1667 256.5,74.5C 248.826,74.6664 241.159,74.4997 233.5,74C 232.663,72.9887 232.33,71.8221 232.5,70.5 Z"/></g>
<g><path style="opacity:0.879" fill="#000000" d="M 35.5,86.5 C 31.8333,86.5 28.1667,86.5 24.5,86.5C 24.6664,78.8261 24.4997,71.1594 24,63.5C 20.41,66.0464 16.5766,68.2131 12.5,70C 11.0288,75.9974 8.19547,76.8308 4,72.5C 2.72576,69.6089 1.22576,66.9422 -0.5,64.5C -0.5,63.8333 -0.5,63.1667 -0.5,62.5C 7.78642,60.293 15.7864,57.293 23.5,53.5C 24.4963,47.2015 24.8297,40.8682 24.5,34.5C 17.8002,34.83 11.1335,34.4967 4.5,33.5C 2.9802,31.3379 1.9802,29.0046 1.5,26.5C 9.16667,26.5 16.8333,26.5 24.5,26.5C 24.5,18.8333 24.5,11.1667 24.5,3.5C 28.534,3.67205 32.534,4.17205 36.5,5C 40.4524,7.40184 40.4524,9.90184 36.5,12.5C 35.5002,37.1577 35.1669,61.8243 35.5,86.5 Z"/></g>
<g><path style="opacity:0.876" fill="#000000" d="M 44.5,3.5 C 49.8371,3.26263 54.6704,4.59597 59,7.5C 59.7789,9.90635 58.9456,11.573 56.5,12.5C 55.3356,19.4763 55.1689,26.4763 56,33.5C 61.9881,29.5073 67.3214,24.8407 72,19.5C 77.9528,21.5745 80.7861,25.5745 80.5,31.5C 78.5767,32.3078 76.5767,32.8078 74.5,33C 68.5987,37.2294 62.4321,41.0627 56,44.5C 55.5002,54.4944 55.3335,64.4944 55.5,74.5C 60.8746,74.8282 66.2079,74.4948 71.5,73.5C 73.1019,67.2816 73.7686,60.9483 73.5,54.5C 75.9372,54.7563 78.2706,55.4229 80.5,56.5C 81.329,61.4671 81.829,66.4671 82,71.5C 82.7096,72.9733 83.8762,73.6399 85.5,73.5C 86.0115,79.4822 83.3448,82.9822 77.5,84C 67.7812,84.8589 58.1145,84.5255 48.5,83C 47.6667,82.1667 46.8333,81.3333 46,80.5C 44.5185,54.9227 44.0185,29.256 44.5,3.5 Z"/></g>
</svg>
